<?xml version="1.0" standalone="no"?>
<!DOCTYPE svg PUBLIC "-//W3C//DTD SVG 20010904//EN"
 "http://www.w3.org/TR/2001/REC-SVG-20010904/DTD/svg10.dtd">
<svg version="1.0" xmlns="http://www.w3.org/2000/svg"
 width="1200.000000pt" height="1200.000000pt" viewBox="0 0 1200.000000 1200.000000"
 preserveAspectRatio="xMidYMid meet">

<g transform="translate(0.000000,1200.000000) scale(0.100000,-0.100000)"
fill="#000000" stroke="none">
<path d="M0 6000 l0 -6000 6000 0 6000 0 0 6000 0 6000 -6000 0 -6000 0 0
-6000z m2584 1464 c32 -12 14 -41 -86 -142 l-103 -102 -51 6 c-92 11 -153 -49
-141 -137 10 -79 85 -125 160 -98 61 21 82 57 80 133 l-2 63 143 141 143 142
215 0 c226 0 267 -6 287 -43 8 -16 11 -172 9 -587 -3 -541 -4 -565 -22 -568
-12 -3 -50 28 -118 96 l-100 100 7 50 c11 84 -41 152 -117 152 -83 0 -134 -56
-125 -137 8 -76 69 -118 155 -108 l47 6 98 -99 c69 -69 98 -105 95 -118 -3
-18 -24 -19 -569 -22 -560 -2 -566 -2 -593 19 l-26 20 0 589 c0 324 3 596 6
605 15 38 58 44 331 45 144 0 268 -3 277 -6z m-232 -316 c42 -34 18 -91 -35
-86 -42 4 -60 47 -32 78 21 23 44 26 67 8z m559 -558 c23 -13 26 -62 5 -79
-46 -38 -111 25 -71 69 20 22 37 25 66 10z m-694 -971 c15 -5 40 -22 56 -37
l27 -26 0 27 c0 26 2 27 55 27 l55 0 0 -115 0 -115 -54 0 -54 0 -11 44 c-18
75 -91 111 -172 87 -45 -14 -69 -43 -69 -87 0 -43 36 -72 141 -114 46 -18 105
-47 130 -63 111 -72 139 -200 68 -312 -67 -105 -245 -128 -336 -43 l-23 21 0
-31 0 -32 -60 0 -61 0 3 128 3 127 53 3 c55 3 54 4 67 -52 14 -64 105 -116
180 -102 56 11 85 45 85 101 0 64 -30 91 -161 143 -165 67 -212 117 -212 227
0 67 15 105 61 148 53 51 160 72 229 46z m2223 -84 l0 -75 -75 0 -75 0 0 75 0
75 75 0 75 0 0 -75z m1370 -30 l0 -105 115 0 115 0 0 -55 0 -55 -115 0 -115 0
0 -142 c1 -149 4 -164 47 -186 50 -27 115 -2 135 54 12 33 14 35 48 29 78 -14
81 -18 55 -83 -33 -78 -102 -122 -195 -122 -68 0 -125 25 -167 73 -44 50 -53
91 -53 245 l0 132 -60 0 -60 0 0 55 0 55 60 0 60 0 0 105 0 105 65 0 65 0 0
-105z m1669 -257 c63 -200 116 -371 119 -380 4 -16 -4 -18 -60 -18 l-65 0 -28
90 -27 91 -126 -3 -126 -3 -26 -87 -25 -88 -62 0 c-38 0 -63 4 -63 11 0 9 46
156 221 717 l11 32 71 0 72 0 114 -362z m-4509 142 c21 -11 46 -30 54 -42 16
-22 16 -22 16 15 l0 37 55 0 55 0 0 -130 0 -130 -54 0 -54 0 -11 43 c-14 57
-43 93 -87 107 -134 45 -248 -108 -184 -247 44 -97 190 -121 300 -49 l36 23
28 -40 c35 -48 31 -58 -43 -100 -44 -25 -66 -30 -139 -34 -138 -8 -231 36
-289 134 -35 60 -44 176 -19 250 47 143 216 224 336 163z m939 9 c18 -6 30
-16 28 -23 -3 -6 -13 -31 -23 -56 -9 -25 -18 -46 -19 -48 -2 -2 -24 2 -50 9
-61 15 -140 -1 -179 -38 -44 -40 -56 -81 -56 -188 l0 -95 60 0 60 0 0 -55 0
-55 -185 0 -185 0 0 55 0 55 60 0 60 0 0 165 0 165 -60 0 -60 0 0 55 0 55 125
0 125 0 0 -57 0 -58 21 32 c22 34 71 69 117 83 40 12 124 12 161 -1z m1306 -8
c95 -44 149 -141 149 -266 0 -125 -54 -222 -149 -266 -70 -32 -175 -19 -227
28 -17 15 -18 10 -18 -120 l0 -137 -60 0 -60 0 0 385 0 385 60 0 c58 0 60 -1
60 -27 0 -24 1 -25 18 -10 52 47 157 60 227 28z m2930 0 c95 -44 149 -141 149
-266 0 -125 -54 -222 -149 -266 -70 -32 -175 -19 -227 28 -17 15 -18 10 -18
-120 l0 -137 -60 0 -60 0 0 385 0 385 60 0 c58 0 60 -1 60 -27 0 -24 1 -25 18
-10 52 47 157 60 227 28z m730 0 c95 -44 149 -141 149 -266 0 -125 -54 -222
-149 -266 -70 -32 -175 -19 -227 28 -17 15 -18 10 -18 -120 l0 -137 -60 0 -60
0 0 385 0 385 60 0 c58 0 60 -1 60 -27 0 -24 1 -25 18 -10 52 47 157 60 227
28z m-4450 -211 l0 -220 62 0 63 0 0 -55 0 -55 -185 0 -185 0 0 55 0 55 60 0
60 0 0 165 0 165 -60 0 -60 0 0 55 0 55 123 0 122 0 0 -220z"/>
<path d="M2819 7214 c-45 -29 -62 -69 -55 -128 l6 -51 -187 -187 -186 -187
-48 6 c-62 7 -103 -10 -130 -54 -65 -105 48 -230 158 -177 52 26 76 74 68 139
l-6 50 181 180 180 180 64 0 c78 0 114 22 135 82 17 48 10 83 -27 124 -23 26
-38 32 -78 36 -34 2 -57 -1 -75 -13z m92 -64 c23 -13 26 -62 5 -79 -46 -38
-111 25 -71 69 20 22 37 25 66 10z m-559 -562 c42 -34 18 -91 -35 -86 -42 4
-60 47 -32 78 21 23 44 26 67 8z"/>
<path d="M7260 5338 c-17 -56 -38 -123 -46 -147 -8 -25 -14 -46 -14 -48 0 -2
41 -3 90 -3 57 0 90 4 90 11 0 11 -80 282 -85 287 -2 2 -18 -43 -35 -100z"/>
<path d="M5034 5289 c-59 -17 -65 -33 -62 -169 3 -122 3 -123 31 -144 37 -28
130 -29 170 -2 65 44 88 165 46 247 -32 63 -107 91 -185 68z"/>
<path d="M7964 5289 c-59 -17 -65 -33 -62 -169 3 -122 3 -123 31 -144 37 -28
130 -29 170 -2 65 44 88 165 46 247 -32 63 -107 91 -185 68z"/>
<path d="M8694 5289 c-59 -17 -65 -33 -62 -169 3 -122 3 -123 31 -144 37 -28
130 -29 170 -2 65 44 88 165 46 247 -32 63 -107 91 -185 68z"/>
</g>
</svg>
